<svg width="132" height="55" viewBox="0 0 132 55" fill="none" xmlns="http://www.w3.org/2000/svg">
<path d="M0 54.1783C6.67796 42.7147 14.415 41.7062 29.0947 41.7062C43.7745 41.7062 61.0136 41.3364 84.8718 41.7062C110.554 42.1096 130.382 28.8642 132 0.053819C125.322 11.5175 116.644 13.6018 101.964 13.6018C87.2841 13.6018 78.4587 13.9716 54.6004 13.6018C28.9182 13.1984 8.88433 26.1076 0 54.1783Z" fill="#DF2224"/>
<path d="M54.704 19.848C55.92 19.848 56.9707 20.0773 57.856 20.536C58.752 20.984 59.4347 21.6293 59.904 22.472C60.384 23.3147 60.624 24.3067 60.624 25.448C60.624 26.5893 60.384 27.5813 59.904 28.424C59.4347 29.256 58.752 29.896 57.856 30.344C56.9707 30.7813 55.92 31 54.704 31H51.232V19.848H54.704ZM54.704 29.8C56.144 29.8 57.2427 29.4213 58 28.664C58.7573 27.896 59.136 26.824 59.136 25.448C59.136 24.0613 58.752 22.9787 57.984 22.2C57.2267 21.4213 56.1333 21.032 54.704 21.032H52.688V29.8H54.704ZM62.0005 26.584C62.0005 25.688 62.1818 24.904 62.5445 24.232C62.9072 23.5493 63.4032 23.0213 64.0325 22.648C64.6725 22.2747 65.3818 22.088 66.1605 22.088C66.9285 22.088 67.5952 22.2533 68.1605 22.584C68.7258 22.9147 69.1472 23.3307 69.4245 23.832V22.232H70.8965V31H69.4245V29.368C69.1365 29.88 68.7045 30.3067 68.1285 30.648C67.5632 30.9787 66.9018 31.144 66.1445 31.144C65.3658 31.144 64.6618 30.952 64.0325 30.568C63.4032 30.184 62.9072 29.6453 62.5445 28.952C62.1818 28.2587 62.0005 27.4693 62.0005 26.584ZM69.4245 26.6C69.4245 25.9387 69.2912 25.3627 69.0245 24.872C68.7578 24.3813 68.3952 24.008 67.9365 23.752C67.4885 23.4853 66.9925 23.352 66.4485 23.352C65.9045 23.352 65.4085 23.48 64.9605 23.736C64.5125 23.992 64.1552 24.3653 63.8885 24.856C63.6218 25.3467 63.4885 25.9227 63.4885 26.584C63.4885 27.256 63.6218 27.8427 63.8885 28.344C64.1552 28.8347 64.5125 29.2133 64.9605 29.48C65.4085 29.736 65.9045 29.864 66.4485 29.864C66.9925 29.864 67.4885 29.736 67.9365 29.48C68.3952 29.2133 68.7578 28.8347 69.0245 28.344C69.2912 27.8427 69.4245 27.2613 69.4245 26.6ZM80.909 22.232L75.629 35.128H74.125L75.853 30.904L72.317 22.232H73.933L76.685 29.336L79.405 22.232H80.909ZM85.4766 31.144C84.8046 31.144 84.202 31.032 83.6686 30.808C83.1353 30.5733 82.714 30.2533 82.4046 29.848C82.0953 29.432 81.9246 28.9573 81.8926 28.424H83.3966C83.4393 28.8613 83.642 29.2187 84.0046 29.496C84.378 29.7733 84.8633 29.912 85.4606 29.912C86.0153 29.912 86.4526 29.7893 86.7726 29.544C87.0926 29.2987 87.2526 28.9893 87.2526 28.616C87.2526 28.232 87.082 27.9493 86.7406 27.768C86.3993 27.576 85.8713 27.3893 85.1566 27.208C84.506 27.0373 83.9726 26.8667 83.5566 26.696C83.1513 26.5147 82.7993 26.2533 82.5006 25.912C82.2126 25.56 82.0686 25.1013 82.0686 24.536C82.0686 24.088 82.202 23.6773 82.4686 23.304C82.7353 22.9307 83.114 22.6373 83.6046 22.424C84.0953 22.2 84.6553 22.088 85.2846 22.088C86.2553 22.088 87.0393 22.3333 87.6366 22.824C88.234 23.3147 88.554 23.9867 88.5966 24.84H87.1406C87.1086 24.3813 86.922 24.0133 86.5806 23.736C86.25 23.4587 85.802 23.32 85.2366 23.32C84.714 23.32 84.298 23.432 83.9886 23.656C83.6793 23.88 83.5246 24.1733 83.5246 24.536C83.5246 24.824 83.6153 25.064 83.7966 25.256C83.9886 25.4373 84.2233 25.5867 84.5006 25.704C84.7886 25.8107 85.1833 25.9333 85.6846 26.072C86.314 26.2427 86.826 26.4133 87.2206 26.584C87.6153 26.744 87.9513 26.9893 88.2286 27.32C88.5166 27.6507 88.666 28.0827 88.6766 28.616C88.6766 29.096 88.5433 29.528 88.2766 29.912C88.01 30.296 87.6313 30.6 87.1406 30.824C86.6606 31.0373 86.106 31.144 85.4766 31.144Z" fill="white"/>
</svg>
