<svg width="132" height="55" viewBox="0 0 132 55" fill="none" xmlns="http://www.w3.org/2000/svg">
<path d="M0 54.1783C6.67796 42.7147 14.415 41.7062 29.0947 41.7062C43.7745 41.7062 61.0136 41.3364 84.8718 41.7062C110.554 42.1096 130.382 28.8642 132 0.0538196C125.322 11.5175 116.644 13.6018 101.964 13.6018C87.2841 13.6018 78.4587 13.9716 54.6004 13.6018C28.9182 13.1984 8.88433 26.1076 0 54.1783Z" fill="#DF2224"/>
<path d="M56.824 19.848V31H55.368V25.944H49.688V31H48.232V19.848H49.688V24.744H55.368V19.848H56.824ZM63.1341 31.144C62.3128 31.144 61.5661 30.9573 60.8941 30.584C60.2328 30.2107 59.7101 29.6827 59.3261 29C58.9528 28.3067 58.7661 27.5067 58.7661 26.6C58.7661 25.704 58.9581 24.9147 59.3421 24.232C59.7368 23.5387 60.2701 23.0107 60.9421 22.648C61.6141 22.2747 62.3661 22.088 63.1981 22.088C64.0301 22.088 64.7821 22.2747 65.4541 22.648C66.1261 23.0107 66.6541 23.5333 67.0381 24.216C67.4328 24.8987 67.6301 25.6933 67.6301 26.6C67.6301 27.5067 67.4275 28.3067 67.0221 29C66.6275 29.6827 66.0888 30.2107 65.4061 30.584C64.7235 30.9573 63.9661 31.144 63.1341 31.144ZM63.1341 29.864C63.6568 29.864 64.1475 29.7413 64.6061 29.496C65.0648 29.2507 65.4328 28.8827 65.7101 28.392C65.9981 27.9013 66.1421 27.304 66.1421 26.6C66.1421 25.896 66.0035 25.2987 65.7261 24.808C65.4488 24.3173 65.0861 23.9547 64.6381 23.72C64.1901 23.4747 63.7048 23.352 63.1821 23.352C62.6488 23.352 62.1581 23.4747 61.7101 23.72C61.2728 23.9547 60.9208 24.3173 60.6541 24.808C60.3875 25.2987 60.2541 25.896 60.2541 26.6C60.2541 27.3147 60.3821 27.9173 60.6381 28.408C60.9048 28.8987 61.2568 29.2667 61.6941 29.512C62.1315 29.7467 62.6115 29.864 63.1341 29.864ZM77.3205 22.232V31H75.8645V29.704C75.5872 30.152 75.1978 30.504 74.6965 30.76C74.2058 31.0053 73.6618 31.128 73.0645 31.128C72.3818 31.128 71.7685 30.9893 71.2245 30.712C70.6805 30.424 70.2485 29.9973 69.9285 29.432C69.6192 28.8667 69.4645 28.1787 69.4645 27.368V22.232H70.9045V27.176C70.9045 28.04 71.1232 28.7067 71.5605 29.176C71.9978 29.6347 72.5952 29.864 73.3525 29.864C74.1312 29.864 74.7445 29.624 75.1925 29.144C75.6405 28.664 75.8645 27.9653 75.8645 27.048V22.232H77.3205ZM81.2349 23.656C81.4909 23.1547 81.8535 22.7653 82.3229 22.488C82.8029 22.2107 83.3842 22.072 84.0669 22.072V23.576H83.6829C82.0509 23.576 81.2349 24.4613 81.2349 26.232V31H79.7789V22.232H81.2349V23.656ZM88.8516 31.144C88.1796 31.144 87.577 31.032 87.0436 30.808C86.5103 30.5733 86.089 30.2533 85.7796 29.848C85.4703 29.432 85.2996 28.9573 85.2676 28.424H86.7716C86.8143 28.8613 87.017 29.2187 87.3796 29.496C87.753 29.7733 88.2383 29.912 88.8356 29.912C89.3903 29.912 89.8276 29.7893 90.1476 29.544C90.4676 29.2987 90.6276 28.9893 90.6276 28.616C90.6276 28.232 90.457 27.9493 90.1156 27.768C89.7743 27.576 89.2463 27.3893 88.5316 27.208C87.881 27.0373 87.3476 26.8667 86.9316 26.696C86.5263 26.5147 86.1743 26.2533 85.8756 25.912C85.5876 25.56 85.4436 25.1013 85.4436 24.536C85.4436 24.088 85.577 23.6773 85.8436 23.304C86.1103 22.9307 86.489 22.6373 86.9796 22.424C87.4703 22.2 88.0303 22.088 88.6596 22.088C89.6303 22.088 90.4143 22.3333 91.0116 22.824C91.609 23.3147 91.929 23.9867 91.9716 24.84H90.5156C90.4836 24.3813 90.297 24.0133 89.9556 23.736C89.625 23.4587 89.177 23.32 88.6116 23.32C88.089 23.32 87.673 23.432 87.3636 23.656C87.0543 23.88 86.8996 24.1733 86.8996 24.536C86.8996 24.824 86.9903 25.064 87.1716 25.256C87.3636 25.4373 87.5983 25.5867 87.8756 25.704C88.1636 25.8107 88.5583 25.9333 89.0596 26.072C89.689 26.2427 90.201 26.4133 90.5956 26.584C90.9903 26.744 91.3263 26.9893 91.6036 27.32C91.8916 27.6507 92.041 28.0827 92.0516 28.616C92.0516 29.096 91.9183 29.528 91.6516 29.912C91.385 30.296 91.0063 30.6 90.5156 30.824C90.0356 31.0373 89.481 31.144 88.8516 31.144Z" fill="white"/>
</svg>
