<svg width="132" height="55" viewBox="0 0 132 55" fill="none" xmlns="http://www.w3.org/2000/svg">
<path d="M0 54.1783C6.67796 42.7147 14.415 41.7062 29.0947 41.7062C43.7745 41.7062 61.0136 41.3364 84.8718 41.7062C110.554 42.1096 130.382 28.8642 132 0.0538196C125.322 11.5175 116.644 13.6018 101.964 13.6018C87.2841 13.6018 78.4587 13.9716 54.6004 13.6018C28.9182 13.1984 8.88433 26.1076 0 54.1783Z" fill="#DF2224"/>
<path d="M50.544 19.928V31H49.088V22.744L45.408 31H44.384L40.688 22.728V31H39.232V19.928H40.8L44.896 29.08L48.992 19.928H50.544ZM53.7653 20.808C53.4879 20.808 53.2533 20.712 53.0613 20.52C52.8693 20.328 52.7733 20.0933 52.7733 19.816C52.7733 19.5387 52.8693 19.304 53.0613 19.112C53.2533 18.92 53.4879 18.824 53.7653 18.824C54.0319 18.824 54.2559 18.92 54.4373 19.112C54.6293 19.304 54.7253 19.5387 54.7253 19.816C54.7253 20.0933 54.6293 20.328 54.4373 20.52C54.2559 20.712 54.0319 20.808 53.7653 20.808ZM54.4693 22.232V31H53.0133V22.232H54.4693ZM61.2228 22.072C62.2894 22.072 63.1534 22.3973 63.8148 23.048C64.4761 23.688 64.8068 24.616 64.8068 25.832V31H63.3668V26.04C63.3668 25.1653 63.1481 24.4987 62.7108 24.04C62.2734 23.5707 61.6761 23.336 60.9188 23.336C60.1508 23.336 59.5374 23.576 59.0788 24.056C58.6308 24.536 58.4068 25.2347 58.4068 26.152V31H56.9508V22.232H58.4068V23.48C58.6948 23.032 59.0841 22.6853 59.5748 22.44C60.0761 22.1947 60.6254 22.072 61.2228 22.072ZM74.9611 22.232V31H73.5051V29.704C73.2278 30.152 72.8385 30.504 72.3371 30.76C71.8465 31.0053 71.3025 31.128 70.7051 31.128C70.0225 31.128 69.4091 30.9893 68.8651 30.712C68.3211 30.424 67.8891 29.9973 67.5691 29.432C67.2598 28.8667 67.1051 28.1787 67.1051 27.368V22.232H68.5451V27.176C68.5451 28.04 68.7638 28.7067 69.2011 29.176C69.6385 29.6347 70.2358 29.864 70.9931 29.864C71.7718 29.864 72.3851 29.624 72.8331 29.144C73.2811 28.664 73.5051 27.9653 73.5051 27.048V22.232H74.9611ZM79.1955 23.432V28.6C79.1955 29.0267 79.2862 29.3307 79.4675 29.512C79.6488 29.6827 79.9635 29.768 80.4115 29.768H81.4835V31H80.1715C79.3608 31 78.7528 30.8133 78.3475 30.44C77.9422 30.0667 77.7395 29.4533 77.7395 28.6V23.432H76.6035V22.232H77.7395V20.024H79.1955V22.232H81.4835V23.432H79.1955ZM91.2476 26.28C91.2476 26.5573 91.2316 26.8507 91.1996 27.16H84.1916C84.245 28.024 84.5383 28.7013 85.0716 29.192C85.6156 29.672 86.2716 29.912 87.0396 29.912C87.669 29.912 88.1916 29.768 88.6076 29.48C89.0343 29.1813 89.333 28.7867 89.5036 28.296H91.0716C90.837 29.1387 90.3676 29.8267 89.6636 30.36C88.9596 30.8827 88.085 31.144 87.0396 31.144C86.2076 31.144 85.461 30.9573 84.7996 30.584C84.149 30.2107 83.637 29.6827 83.2636 29C82.8903 28.3067 82.7036 27.5067 82.7036 26.6C82.7036 25.6933 82.885 24.8987 83.2476 24.216C83.6103 23.5333 84.117 23.0107 84.7676 22.648C85.429 22.2747 86.1863 22.088 87.0396 22.088C87.8716 22.088 88.6076 22.2693 89.2476 22.632C89.8876 22.9947 90.3783 23.496 90.7196 24.136C91.0716 24.7653 91.2476 25.48 91.2476 26.28ZM89.7436 25.976C89.7436 25.4213 89.621 24.9467 89.3756 24.552C89.1303 24.1467 88.7943 23.8427 88.3676 23.64C87.9516 23.4267 87.4876 23.32 86.9756 23.32C86.2396 23.32 85.6103 23.5547 85.0876 24.024C84.5756 24.4933 84.2823 25.144 84.2076 25.976H89.7436ZM96.2735 31.144C95.6015 31.144 94.9988 31.032 94.4655 30.808C93.9322 30.5733 93.5108 30.2533 93.2015 29.848C92.8922 29.432 92.7215 28.9573 92.6895 28.424H94.1935C94.2362 28.8613 94.4388 29.2187 94.8015 29.496C95.1748 29.7733 95.6602 29.912 96.2575 29.912C96.8122 29.912 97.2495 29.7893 97.5695 29.544C97.8895 29.2987 98.0495 28.9893 98.0495 28.616C98.0495 28.232 97.8788 27.9493 97.5375 27.768C97.1962 27.576 96.6682 27.3893 95.9535 27.208C95.3028 27.0373 94.7695 26.8667 94.3535 26.696C93.9482 26.5147 93.5962 26.2533 93.2975 25.912C93.0095 25.56 92.8655 25.1013 92.8655 24.536C92.8655 24.088 92.9988 23.6773 93.2655 23.304C93.5322 22.9307 93.9108 22.6373 94.4015 22.424C94.8922 22.2 95.4522 22.088 96.0815 22.088C97.0522 22.088 97.8362 22.3333 98.4335 22.824C99.0308 23.3147 99.3508 23.9867 99.3935 24.84H97.9375C97.9055 24.3813 97.7188 24.0133 97.3775 23.736C97.0468 23.4587 96.5988 23.32 96.0335 23.32C95.5108 23.32 95.0948 23.432 94.7855 23.656C94.4762 23.88 94.3215 24.1733 94.3215 24.536C94.3215 24.824 94.4122 25.064 94.5935 25.256C94.7855 25.4373 95.0202 25.5867 95.2975 25.704C95.5855 25.8107 95.9802 25.9333 96.4815 26.072C97.1108 26.2427 97.6228 26.4133 98.0175 26.584C98.4122 26.744 98.7482 26.9893 99.0255 27.32C99.3135 27.6507 99.4628 28.0827 99.4735 28.616C99.4735 29.096 99.3402 29.528 99.0735 29.912C98.8068 30.296 98.4282 30.6 97.9375 30.824C97.4575 31.0373 96.9028 31.144 96.2735 31.144Z" fill="white"/>
</svg>
