<svg width="132" height="55" viewBox="0 0 132 55" fill="none" xmlns="http://www.w3.org/2000/svg">
<path d="M0 54.1783C6.67796 42.7147 14.415 41.7062 29.0947 41.7062C43.7745 41.7062 61.0136 41.3364 84.8718 41.7062C110.554 42.1096 130.382 28.8642 132 0.0538196C125.322 11.5175 116.644 13.6018 101.964 13.6018C87.2841 13.6018 78.4587 13.9716 54.6004 13.6018C28.9182 13.1984 8.88433 26.1076 0 54.1783Z" fill="#DF2224"/>
<path d="M38.768 31.112C38.032 31.112 37.3707 30.984 36.784 30.728C36.208 30.4613 35.7547 30.0987 35.424 29.64C35.0933 29.1707 34.9227 28.632 34.912 28.024H36.464C36.5173 28.5467 36.7307 28.9893 37.104 29.352C37.488 29.704 38.0427 29.88 38.768 29.88C39.4613 29.88 40.0053 29.7093 40.4 29.368C40.8053 29.016 41.008 28.568 41.008 28.024C41.008 27.5973 40.8907 27.2507 40.656 26.984C40.4213 26.7173 40.128 26.5147 39.776 26.376C39.424 26.2373 38.9493 26.088 38.352 25.928C37.616 25.736 37.024 25.544 36.576 25.352C36.1387 25.16 35.76 24.8613 35.44 24.456C35.1307 24.04 34.976 23.4853 34.976 22.792C34.976 22.184 35.1307 21.6453 35.44 21.176C35.7493 20.7067 36.1813 20.344 36.736 20.088C37.3013 19.832 37.9467 19.704 38.672 19.704C39.7173 19.704 40.5707 19.9653 41.232 20.488C41.904 21.0107 42.2827 21.704 42.368 22.568H40.768C40.7147 22.1413 40.4907 21.768 40.096 21.448C39.7013 21.1173 39.1787 20.952 38.528 20.952C37.92 20.952 37.424 21.112 37.04 21.432C36.656 21.7413 36.464 22.1787 36.464 22.744C36.464 23.1493 36.576 23.48 36.8 23.736C37.0347 23.992 37.3173 24.1893 37.648 24.328C37.9893 24.456 38.464 24.6053 39.072 24.776C39.808 24.9787 40.4 25.1813 40.848 25.384C41.296 25.576 41.68 25.88 42 26.296C42.32 26.7013 42.48 27.256 42.48 27.96C42.48 28.504 42.336 29.016 42.048 29.496C41.76 29.976 41.3333 30.3653 40.768 30.664C40.2027 30.9627 39.536 31.112 38.768 31.112ZM52.6226 26.28C52.6226 26.5573 52.6066 26.8507 52.5746 27.16H45.5666C45.62 28.024 45.9133 28.7013 46.4466 29.192C46.9906 29.672 47.6466 29.912 48.4146 29.912C49.044 29.912 49.5666 29.768 49.9826 29.48C50.4093 29.1813 50.708 28.7867 50.8786 28.296H52.4466C52.212 29.1387 51.7426 29.8267 51.0386 30.36C50.3346 30.8827 49.46 31.144 48.4146 31.144C47.5826 31.144 46.836 30.9573 46.1746 30.584C45.524 30.2107 45.012 29.6827 44.6386 29C44.2653 28.3067 44.0786 27.5067 44.0786 26.6C44.0786 25.6933 44.26 24.8987 44.6226 24.216C44.9853 23.5333 45.492 23.0107 46.1426 22.648C46.804 22.2747 47.5613 22.088 48.4146 22.088C49.2466 22.088 49.9826 22.2693 50.6226 22.632C51.2626 22.9947 51.7533 23.496 52.0946 24.136C52.4466 24.7653 52.6226 25.48 52.6226 26.28ZM51.1186 25.976C51.1186 25.4213 50.996 24.9467 50.7506 24.552C50.5053 24.1467 50.1693 23.8427 49.7426 23.64C49.3266 23.4267 48.8626 23.32 48.3506 23.32C47.6146 23.32 46.9853 23.5547 46.4626 24.024C45.9506 24.4933 45.6573 25.144 45.5826 25.976H51.1186ZM54.0005 26.6C54.0005 25.6933 54.1818 24.904 54.5445 24.232C54.9072 23.5493 55.4085 23.0213 56.0485 22.648C56.6992 22.2747 57.4405 22.088 58.2725 22.088C59.3498 22.088 60.2352 22.3493 60.9285 22.872C61.6325 23.3947 62.0965 24.12 62.3205 25.048H60.7525C60.6032 24.5147 60.3098 24.0933 59.8725 23.784C59.4458 23.4747 58.9125 23.32 58.2725 23.32C57.4405 23.32 56.7685 23.608 56.2565 24.184C55.7445 24.7493 55.4885 25.5547 55.4885 26.6C55.4885 27.656 55.7445 28.472 56.2565 29.048C56.7685 29.624 57.4405 29.912 58.2725 29.912C58.9125 29.912 59.4458 29.7627 59.8725 29.464C60.2992 29.1653 60.5925 28.7387 60.7525 28.184H62.3205C62.0858 29.08 61.6165 29.8 60.9125 30.344C60.2085 30.8773 59.3285 31.144 58.2725 31.144C57.4405 31.144 56.6992 30.9573 56.0485 30.584C55.4085 30.2107 54.9072 29.6827 54.5445 29C54.1818 28.3173 54.0005 27.5173 54.0005 26.6ZM68.0873 31.144C67.2659 31.144 66.5193 30.9573 65.8473 30.584C65.1859 30.2107 64.6633 29.6827 64.2793 29C63.9059 28.3067 63.7193 27.5067 63.7193 26.6C63.7193 25.704 63.9113 24.9147 64.2953 24.232C64.6899 23.5387 65.2233 23.0107 65.8953 22.648C66.5673 22.2747 67.3193 22.088 68.1513 22.088C68.9833 22.088 69.7353 22.2747 70.4073 22.648C71.0793 23.0107 71.6073 23.5333 71.9913 24.216C72.3859 24.8987 72.5833 25.6933 72.5833 26.6C72.5833 27.5067 72.3806 28.3067 71.9753 29C71.5806 29.6827 71.0419 30.2107 70.3593 30.584C69.6766 30.9573 68.9193 31.144 68.0873 31.144ZM68.0873 29.864C68.6099 29.864 69.1006 29.7413 69.5593 29.496C70.0179 29.2507 70.3859 28.8827 70.6633 28.392C70.9513 27.9013 71.0953 27.304 71.0953 26.6C71.0953 25.896 70.9566 25.2987 70.6793 24.808C70.4019 24.3173 70.0393 23.9547 69.5913 23.72C69.1433 23.4747 68.6579 23.352 68.1353 23.352C67.6019 23.352 67.1113 23.4747 66.6633 23.72C66.2259 23.9547 65.8739 24.3173 65.6073 24.808C65.3406 25.2987 65.2073 25.896 65.2073 26.6C65.2073 27.3147 65.3353 27.9173 65.5913 28.408C65.8579 28.8987 66.2099 29.2667 66.6473 29.512C67.0846 29.7467 67.5646 29.864 68.0873 29.864ZM78.7696 22.072C79.8363 22.072 80.7003 22.3973 81.3616 23.048C82.023 23.688 82.3536 24.616 82.3536 25.832V31H80.9136V26.04C80.9136 25.1653 80.695 24.4987 80.2576 24.04C79.8203 23.5707 79.223 23.336 78.4656 23.336C77.6976 23.336 77.0843 23.576 76.6256 24.056C76.1776 24.536 75.9536 25.2347 75.9536 26.152V31H74.4976V22.232H75.9536V23.48C76.2416 23.032 76.631 22.6853 77.1216 22.44C77.623 22.1947 78.1723 22.072 78.7696 22.072ZM84.188 26.584C84.188 25.688 84.3693 24.904 84.732 24.232C85.0947 23.5493 85.5907 23.0213 86.22 22.648C86.86 22.2747 87.5747 22.088 88.364 22.088C89.0467 22.088 89.6813 22.248 90.268 22.568C90.8547 22.8773 91.3027 23.288 91.612 23.8V19.16H93.084V31H91.612V29.352C91.324 29.8747 90.8973 30.3067 90.332 30.648C89.7667 30.9787 89.1053 31.144 88.348 31.144C87.5693 31.144 86.86 30.952 86.22 30.568C85.5907 30.184 85.0947 29.6453 84.732 28.952C84.3693 28.2587 84.188 27.4693 84.188 26.584ZM91.612 26.6C91.612 25.9387 91.4787 25.3627 91.212 24.872C90.9453 24.3813 90.5827 24.008 90.124 23.752C89.676 23.4853 89.18 23.352 88.636 23.352C88.092 23.352 87.596 23.48 87.148 23.736C86.7 23.992 86.3427 24.3653 86.076 24.856C85.8093 25.3467 85.676 25.9227 85.676 26.584C85.676 27.256 85.8093 27.8427 86.076 28.344C86.3427 28.8347 86.7 29.2133 87.148 29.48C87.596 29.736 88.092 29.864 88.636 29.864C89.18 29.864 89.676 29.736 90.124 29.48C90.5827 29.2133 90.9453 28.8347 91.212 28.344C91.4787 27.8427 91.612 27.2613 91.612 26.6ZM98.6485 31.144C97.9765 31.144 97.3738 31.032 96.8405 30.808C96.3072 30.5733 95.8858 30.2533 95.5765 29.848C95.2672 29.432 95.0965 28.9573 95.0645 28.424H96.5685C96.6112 28.8613 96.8138 29.2187 97.1765 29.496C97.5498 29.7733 98.0352 29.912 98.6325 29.912C99.1872 29.912 99.6245 29.7893 99.9445 29.544C100.265 29.2987 100.425 28.9893 100.425 28.616C100.425 28.232 100.254 27.9493 99.9125 27.768C99.5712 27.576 99.0432 27.3893 98.3285 27.208C97.6778 27.0373 97.1445 26.8667 96.7285 26.696C96.3232 26.5147 95.9712 26.2533 95.6725 25.912C95.3845 25.56 95.2405 25.1013 95.2405 24.536C95.2405 24.088 95.3738 23.6773 95.6405 23.304C95.9072 22.9307 96.2858 22.6373 96.7765 22.424C97.2672 22.2 97.8272 22.088 98.4565 22.088C99.4272 22.088 100.211 22.3333 100.809 22.824C101.406 23.3147 101.726 23.9867 101.769 24.84H100.313C100.281 24.3813 100.094 24.0133 99.7525 23.736C99.4218 23.4587 98.9738 23.32 98.4085 23.32C97.8858 23.32 97.4698 23.432 97.1605 23.656C96.8512 23.88 96.6965 24.1733 96.6965 24.536C96.6965 24.824 96.7872 25.064 96.9685 25.256C97.1605 25.4373 97.3952 25.5867 97.6725 25.704C97.9605 25.8107 98.3552 25.9333 98.8565 26.072C99.4858 26.2427 99.9978 26.4133 100.393 26.584C100.787 26.744 101.123 26.9893 101.401 27.32C101.689 27.6507 101.838 28.0827 101.849 28.616C101.849 29.096 101.715 29.528 101.449 29.912C101.182 30.296 100.803 30.6 100.313 30.824C99.8325 31.0373 99.2778 31.144 98.6485 31.144Z" fill="white"/>
</svg>
